<svg width="131" height="104" viewBox="0 0 131 104" fill="none" xmlns="http://www.w3.org/2000/svg">
<path d="M119.811 76.6193C118.915 79.5259 117.785 82.3547 116.432 85.0784C113.748 90.5004 110.263 95.3991 106.362 99.7939C105.51 100.754 104.219 101.199 102.957 100.969C101.694 100.738 100.643 99.8663 100.185 98.6672C99.7265 97.4689 99.9279 96.1176 100.715 95.1038L100.725 95.0903C103.899 91.0013 106.597 86.6159 108.567 81.991L108.567 81.9919C102.492 83.3064 96.3394 84.2275 90.1463 84.7482C89.3588 84.807 88.5738 84.8793 87.7853 84.9265L85.4132 85.0451L84.2277 85.1036L83.0363 85.1278L80.654 85.1727C79.8575 85.1739 79.0599 85.1513 78.2632 85.1411L77.0678 85.1209C76.6692 85.1109 76.2686 85.0849 75.8696 85.0679L73.4739 84.9498L71.0745 84.7534C70.675 84.718 70.2754 84.6913 69.875 84.6479L68.6748 84.5074C67.875 84.4068 67.0753 84.335 66.2767 84.2033L63.8821 83.8224C63.0845 83.69 62.2891 83.5171 61.4937 83.3652L61.4922 83.364C58.2929 82.7212 55.1379 81.8759 52.0453 80.8335C45.8543 78.6804 39.8628 75.6661 34.5757 71.6358C29.2898 67.6249 24.7692 62.6961 21.2295 57.084C17.7751 51.5564 15.2775 45.4859 13.8422 39.1275C13.1332 35.9993 12.6688 32.8206 12.4531 29.6199C12.3662 28.0235 12.3031 26.4294 12.3381 24.8329C12.3544 23.2387 12.4435 21.6463 12.6041 20.0575C12.7583 18.4699 13.0036 16.8889 13.2928 15.3186L13.2936 15.3188C13.6012 13.7437 13.988 12.1859 14.4529 10.651C15.4192 7.58109 16.6988 4.55913 18.652 1.82271C19.3431 0.854632 20.6675 0.591346 21.6761 1.22111C22.6839 1.8507 23.0285 3.15706 22.4625 4.20243L22.4417 4.23995C21.8061 5.43724 21.2836 6.69021 20.8807 7.98413C20.4587 9.30304 20.1185 10.6474 19.8619 12.0092C19.6164 13.3846 19.43 14.7731 19.3032 16.173C19.1982 17.5765 19.1296 18.9814 19.1434 20.3919L19.1432 20.3927C19.1576 23.2103 19.39 26.0224 19.8395 28.8042C20.2978 31.5689 20.9535 34.2967 21.8017 36.9665C22.6609 39.6038 23.7202 42.1702 24.9716 44.6454C26.2002 47.0924 27.641 49.4274 29.2778 51.6223C30.8957 53.7908 32.6953 55.8181 34.6555 57.6835C36.608 59.5308 38.7206 61.2012 40.9689 62.6756C43.2199 64.1489 45.5841 65.4408 48.0399 66.5373C50.5171 67.6365 53.0706 68.5555 55.6805 69.2857C61.004 70.7423 66.4753 71.5917 71.9908 71.817L74.0824 71.9054L76.1848 71.9246C76.5355 71.9264 76.8845 71.9366 77.2359 71.9307L78.2916 71.9056L80.4012 71.8565L82.5171 71.7513L83.5748 71.6996L84.6352 71.6144L86.7545 71.4463C87.4609 71.383 88.169 71.2948 88.8751 71.221C94.3236 70.6484 99.7706 69.7122 105.207 68.5839C103.833 68.0461 102.476 67.461 101.136 66.8282L101.135 66.8297C96.3261 64.563 91.8466 61.6542 87.8199 58.1828C86.6085 57.134 86.0438 55.5226 86.3368 53.9471C86.6295 52.3724 87.7352 51.071 89.2421 50.5274C90.7489 49.9838 92.4308 50.2803 93.6617 51.3062L93.6677 51.3109L93.6669 51.3107C97.1215 54.1788 100.948 56.5643 105.044 58.4025C109.193 60.2518 113.538 61.6233 117.996 62.491L121.772 67.6519C121.369 70.6899 120.713 73.6898 119.812 76.6188L119.811 76.6193Z" fill="#00D5E4"/>
</svg>
