<svg width="100" height="95" viewBox="0 0 100 95" fill="none" xmlns="http://www.w3.org/2000/svg">
<path d="M97.9378 22.3808C97.0391 19.7395 95.9271 17.1758 94.615 14.7143C92.0098 9.81418 88.6844 5.41515 84.9909 1.4891C84.1839 0.631445 82.9887 0.257346 81.837 0.501861C80.6855 0.747117 79.7449 1.57456 79.3567 2.6862C78.9683 3.79709 79.1888 5.03076 79.9371 5.93941L79.9472 5.95149C82.966 9.61646 85.556 13.5658 87.4853 17.754L87.4852 17.7533C81.8804 16.7092 76.2142 16.0281 70.5219 15.7151C69.7983 15.6821 69.0766 15.6366 68.3524 15.6143L66.1743 15.5686L65.0857 15.5464L63.9927 15.5559L61.8071 15.5779C61.0768 15.598 60.3461 15.6399 59.6158 15.6704L58.5203 15.7207C58.1551 15.7404 57.7885 15.7749 57.4231 15.8011L55.2296 15.973L53.0348 16.2167C52.6695 16.2598 52.3038 16.2949 51.9378 16.3454L50.8411 16.5061C50.1104 16.6195 49.3791 16.7066 48.6503 16.8486L46.4648 17.2614C45.737 17.404 45.0123 17.5836 44.287 17.744L44.2857 17.7451C41.3693 18.4195 38.4989 19.2784 35.691 20.3162C30.0716 22.4548 24.6581 25.3777 19.9173 29.2135C15.1772 33.0315 11.1631 37.6707 8.06651 42.9104C5.04596 48.0704 2.91712 53.7028 1.76993 59.571C1.20286 62.458 0.861473 65.3849 0.748705 68.3254C0.711365 69.7914 0.695896 71.2548 0.770384 72.7176C0.827646 74.179 0.951566 75.6367 1.14102 77.0892C1.32462 78.5407 1.59147 79.9838 1.89833 81.4159L1.89909 81.4158C2.22298 82.8518 2.619 84.2699 3.08598 85.6649C4.05349 88.454 5.30698 91.1909 7.17057 93.6481C7.82993 94.5174 9.05129 94.7236 9.95938 94.1194C10.8667 93.5154 11.1479 92.3084 10.6013 91.3649L10.5812 91.3311C9.96662 90.2501 9.45425 89.1152 9.05046 87.9395C8.62849 86.7414 8.2809 85.5177 8.00943 84.2759C7.74782 83.0213 7.54009 81.7532 7.38659 80.473C7.25309 79.1889 7.15283 77.9025 7.12805 76.6089L7.12787 76.6081C7.06627 74.0243 7.20471 71.4397 7.54296 68.8771C7.88974 66.3301 8.41857 63.8115 9.12539 61.341C9.84311 58.9001 10.7462 56.5188 11.828 54.2161C12.8894 51.9398 14.1485 49.7606 15.5911 47.7045C17.017 45.6733 18.6131 43.7667 20.3609 42.0042C22.1022 40.2586 23.9949 38.6709 26.0172 37.2593C28.042 35.8487 30.1754 34.6013 32.3981 33.5308C34.6402 32.4572 36.9571 31.5467 39.3308 30.8079C44.1732 29.331 49.1672 28.4068 54.2185 28.0538L56.1339 27.9172L58.0611 27.8438C58.3826 27.8328 58.7023 27.8142 59.0247 27.8103L59.9934 27.8053L61.9289 27.7943L63.8718 27.8345L64.843 27.8539L65.8175 27.9039L67.7651 28.0017C68.4146 28.041 69.0662 28.1031 69.7155 28.152C74.7265 28.5323 79.7457 29.2461 84.76 30.1363C83.515 30.6659 82.2858 31.2384 81.0741 31.8542L81.0729 31.8528C76.7241 34.0589 72.6942 36.8449 69.0942 40.1348C68.0114 41.1286 67.5363 42.621 67.8468 44.0578C68.157 45.4939 69.2054 46.6578 70.6015 47.1162C71.9976 47.5747 73.5318 47.2581 74.6332 46.2848L74.6386 46.2803L74.6378 46.2805C77.7292 43.559 81.1746 41.2701 84.8809 39.4759C88.6361 37.6701 92.5838 36.2973 96.6483 35.3833L99.9733 30.551C99.5231 27.7762 98.8422 25.0429 97.9379 22.3813L97.9378 22.3808Z" fill="#00D5E4"/>
</svg>
